<svg width="56" height="56" viewBox="0 0 56 56" fill="none" xmlns="http://www.w3.org/2000/svg">
<path d="M14.0321 39.4729C14.0167 39.5718 14.0209 39.6727 14.0445 39.7699C14.068 39.8671 14.1105 39.9587 14.1694 40.0395C14.2283 40.1203 14.3025 40.1887 14.3879 40.2407C14.4732 40.2928 14.5679 40.3275 14.6666 40.3429C19.9551 41.1683 20.6614 43.9085 20.686 46.2036C20.6881 46.4043 20.7691 46.5959 20.9115 46.737C21.0539 46.8782 21.2462 46.9573 21.4465 46.9573H21.4548C21.5547 46.9563 21.6534 46.9355 21.7453 46.8963C21.8372 46.857 21.9205 46.8 21.9903 46.7285C22.0602 46.657 22.1154 46.5724 22.1526 46.4796C22.1898 46.3868 22.2085 46.2875 22.2074 46.1875C22.1628 42.0021 19.7727 39.598 14.901 38.8376C14.4866 38.7725 14.0969 39.0571 14.0321 39.4729ZM24.4458 30.5717C24.4458 30.3696 24.3657 30.1759 24.223 30.033C24.0803 29.8901 23.8868 29.8099 23.6851 29.8099C23.4833 29.8099 23.2898 29.8901 23.1471 30.033C23.0045 30.1759 22.9243 30.3696 22.9243 30.5717C22.9243 31.8929 22.309 32.7799 21.7928 33.2912C21.0795 33.9979 20.0697 34.4475 19.2222 34.4394C18.8028 34.4323 18.4579 34.7722 18.4533 35.193C18.4512 35.395 18.5292 35.5896 18.6703 35.734C18.8115 35.8784 19.0041 35.9608 19.2059 35.9629L19.2467 35.9631C20.4892 35.9631 21.871 35.3568 22.8628 34.3744C23.585 33.6589 24.4458 32.4185 24.4458 30.5717ZM42.2297 29.0331C42.4301 29.03 42.6211 28.9478 42.7614 28.8044C42.9016 28.661 42.9797 28.468 42.9786 28.2673C42.9775 28.0666 42.8974 27.8745 42.7557 27.7326C42.6139 27.5907 42.422 27.5106 42.2216 27.5096L42.1924 27.5097C41.5088 27.5097 40.6985 27.1434 40.1219 26.5722C39.7638 26.2175 39.3485 25.6404 39.2315 24.813C41.2968 23.7028 42.6176 21.5839 42.6053 19.2631C42.6042 19.0618 42.5236 18.8691 42.381 18.7271C42.2385 18.5852 42.0456 18.5055 41.8446 18.5055H41.8404C41.7405 18.506 41.6417 18.5262 41.5496 18.565C41.4575 18.6038 41.374 18.6604 41.3037 18.7315C41.2334 18.8026 41.1778 18.8869 41.1401 18.9795C41.1024 19.0721 41.0832 19.1713 41.0837 19.2714C41.0962 21.6007 39.4209 23.2258 37.7549 23.8032C35.9741 24.4203 34.2665 23.9589 33.1871 22.5688C33.1257 22.4898 33.0495 22.4237 32.9627 22.3743C32.8758 22.3248 32.7801 22.2929 32.681 22.2805C32.5819 22.2681 32.4813 22.2754 32.385 22.3019C32.2886 22.3284 32.1985 22.3736 32.1196 22.435C32.0407 22.4964 31.9747 22.5728 31.9253 22.6597C31.876 22.7467 31.8442 22.8425 31.8317 22.9418C31.8193 23.0411 31.8266 23.1418 31.8531 23.2383C31.8795 23.3347 31.9247 23.425 31.986 23.504C33.0428 24.8647 34.5737 25.5928 36.2349 25.5928C36.7438 25.5928 37.265 25.5236 37.7884 25.3843C38.0191 26.4312 38.5704 27.1783 39.052 27.6553C39.9123 28.5075 41.1127 29.0333 42.1936 29.0333L42.2297 29.0331ZM34.4688 46.9572H34.4771C34.6774 46.9572 34.8697 46.878 35.012 46.7369C35.1544 46.5959 35.2355 46.4042 35.2377 46.2036C35.2622 43.9085 35.9686 41.1683 41.2572 40.3429C41.3559 40.3275 41.4506 40.2928 41.5359 40.2407C41.6212 40.1887 41.6954 40.1203 41.7543 40.0395C41.8132 39.9587 41.8557 39.8671 41.8792 39.7699C41.9028 39.6727 41.907 39.5718 41.8916 39.4729C41.8762 39.374 41.8416 39.2792 41.7896 39.1937C41.7377 39.1083 41.6694 39.0339 41.5887 38.9749C41.508 38.9159 41.4165 38.8734 41.3194 38.8498C41.2223 38.8262 41.1215 38.8221 41.0228 38.8375C36.1512 39.5978 33.7611 42.002 33.7163 46.1874C33.7152 46.2874 33.7338 46.3867 33.7711 46.4795C33.8083 46.5723 33.8634 46.6569 33.9333 46.7284C34.0032 46.7999 34.0864 46.8569 34.1783 46.8962C34.2702 46.9354 34.3689 46.9562 34.4688 46.9572ZM36.7177 35.9628C36.9181 35.9597 37.1092 35.8775 37.2494 35.7341C37.3896 35.5908 37.4677 35.3978 37.4666 35.1971C37.4656 34.9964 37.3855 34.8042 37.2437 34.6623C37.102 34.5204 36.9101 34.4403 36.7097 34.4393L36.6759 34.4395C35.833 34.4395 34.8369 33.9907 34.1307 33.2911C33.6145 32.7798 32.9992 31.8928 32.9992 30.5716C32.9992 30.3695 32.9191 30.1758 32.7764 30.0329C32.6337 29.89 32.4402 29.8098 32.2385 29.8098C32.0367 29.8098 31.8432 29.89 31.7005 30.0329C31.5579 30.1758 31.4777 30.3695 31.4777 30.5716C31.4777 32.4184 32.3385 33.6589 33.0607 34.3743C34.0525 35.3568 35.4341 35.963 36.6767 35.963C36.6904 35.9631 36.7041 35.963 36.7177 35.9628ZM13.7106 27.5096C13.2913 27.5045 12.9463 27.8424 12.9416 28.2631C12.9405 28.3631 12.9591 28.4624 12.9963 28.5552C13.0336 28.6481 13.0887 28.7327 13.1586 28.8042C13.2284 28.8757 13.3117 28.9327 13.4036 28.972C13.4954 29.0113 13.5942 29.032 13.6941 29.0331L13.7302 29.0333C14.8111 29.0333 16.0115 28.5075 16.8719 27.6553C17.3534 27.1783 17.9047 26.4311 18.1355 25.384C18.659 25.5234 19.1802 25.5927 19.6893 25.5927C21.3502 25.5927 22.8812 24.8645 23.9378 23.504C23.9991 23.425 24.0443 23.3347 24.0708 23.2383C24.0973 23.1418 24.1045 23.0411 24.0921 22.9418C24.0797 22.8425 24.0479 22.7467 23.9985 22.6597C23.9491 22.5728 23.8831 22.4964 23.8043 22.435C23.7254 22.3736 23.6352 22.3284 23.5389 22.3019C23.4426 22.2754 23.342 22.2681 23.2429 22.2805C23.1437 22.2929 23.048 22.3248 22.9612 22.3743C22.8744 22.4237 22.7981 22.4898 22.7368 22.5688C21.6577 23.9583 19.951 24.42 18.1716 23.8038C16.5052 23.2269 14.8289 21.6015 14.84 19.271C14.841 19.0689 14.7617 18.8748 14.6197 18.7313C14.4778 18.5877 14.2847 18.5065 14.0829 18.5056H14.0792C13.878 18.5056 13.6851 18.5854 13.5426 18.7275C13.4001 18.8696 13.3195 19.0624 13.3185 19.2637C13.3074 21.5842 14.6282 23.7023 16.6924 24.8125C16.5754 25.6402 16.1601 26.2175 15.8019 26.5723C15.2194 27.1491 14.4027 27.5149 13.7106 27.5096Z" fill="black"/>
<path d="M50.7411 25.1249C50.3489 23.5597 49.5469 22.392 48.4441 21.7545C49.2182 19.8332 49.0915 17.6971 48.0669 15.9001C47.1805 14.3455 45.7656 13.3062 44.0868 12.9419C44.6318 11.4668 44.5434 9.68239 43.7935 8.26824C42.9661 6.70814 41.4884 5.802 39.6037 5.68683C38.0789 3.39914 35.9672 2.09599 33.6193 2.00509C31.5317 1.92384 29.475 2.84024 27.962 4.48992C26.4504 2.84004 24.396 1.92364 22.306 2.00499C19.9577 2.09589 17.8462 3.39904 16.3227 5.68673C14.4373 5.8021 12.9588 6.70875 12.131 8.26966C11.3812 9.68351 11.2927 11.4674 11.837 12.9418C10.158 13.306 8.74324 14.3453 7.85683 15.9C6.83197 17.6973 6.7056 19.8337 7.47985 21.7553C6.49222 22.3292 5.73643 23.3372 5.31148 24.6702C5.25134 24.8624 5.2696 25.0705 5.36227 25.2492C5.45494 25.4279 5.61448 25.5626 5.80602 25.6238C5.99755 25.6851 6.20551 25.6679 6.38444 25.576C6.56336 25.4842 6.69871 25.3251 6.76088 25.1337C7.02802 24.2959 7.58604 23.221 8.72772 22.8586C8.83466 22.8246 8.93277 22.7673 9.01502 22.6909C9.09727 22.6145 9.16163 22.5209 9.20349 22.4166C9.24536 22.3124 9.26368 22.2002 9.25716 22.088C9.25063 21.9759 9.21942 21.8666 9.16576 21.7679C8.27813 20.1368 8.28269 18.2257 9.17803 16.6557C9.99102 15.2299 11.3939 14.3802 13.0266 14.3243C13.1625 14.3197 13.2947 14.2786 13.4095 14.2055C13.5242 14.1323 13.6172 14.0297 13.6788 13.9083C13.7405 13.7869 13.7685 13.6512 13.76 13.5153C13.7515 13.3794 13.7067 13.2482 13.6304 13.1355C12.8647 12.0042 12.7991 10.2585 13.4748 8.98445C13.9071 8.16931 14.8235 7.19858 16.7367 7.19797C17.8678 7.2256 18.973 7.42425 20.0581 9.48059C20.1048 9.56906 20.1684 9.64745 20.2453 9.7113C20.3222 9.77515 20.4109 9.8232 20.5064 9.8527C20.6018 9.8822 20.7022 9.89258 20.8016 9.88324C20.9011 9.8739 20.9978 9.84503 21.0861 9.79827C21.2645 9.70388 21.3981 9.5424 21.4576 9.34935C21.5171 9.15629 21.4976 8.94748 21.4033 8.76884C20.4009 6.86922 19.2343 6.12385 18.1013 5.83937C19.2801 4.40125 20.7621 3.58967 22.3648 3.52772C24.1735 3.45784 25.9644 4.3585 27.2012 5.94703V16.7449C25.6475 15.2196 23.5302 14.5717 21.2853 15.0239C20.8734 15.1067 20.6067 15.5084 20.6895 15.9209C20.7724 16.3333 21.1733 16.6009 21.5853 16.5174C24.3179 15.9674 26.258 17.5439 27.2012 19.2577V47.2511C27.1923 50.1456 24.8002 51.762 22.7483 52.267C20.2223 52.8887 16.9889 52.1966 15.4589 49.2484C15.3995 49.1339 15.3119 49.0363 15.2045 48.9649C15.0971 48.8936 14.9734 48.8507 14.8449 48.8403C13.6327 48.7427 12.4306 47.9855 11.5468 46.7627C10.4387 45.2297 10.0371 43.2392 10.4725 41.4383C10.4984 41.3308 10.5007 41.2189 10.4792 41.1105C10.4577 41.002 10.4128 40.8996 10.3477 40.8102C10.2827 40.7209 10.199 40.6468 10.1025 40.5931C10.006 40.5394 9.89891 40.5073 9.78878 40.4992C8.73036 40.4214 7.71007 39.4123 7.12599 37.8658C6.58197 36.4252 6.4623 34.5355 7.24922 33.1637C8.50176 34.422 10.3329 35.1018 12.5285 35.1018C12.6027 35.1018 12.6775 35.101 12.7526 35.0995C12.9543 35.0953 13.1461 35.011 13.2858 34.8652C13.4255 34.7194 13.5016 34.524 13.4974 34.322C13.4888 33.9014 13.1414 33.5685 12.7212 33.5761C10.9396 33.6136 9.50318 33.1631 8.50541 32.2652C8.25744 32.042 7.23654 31.0322 6.9979 30.201C6.7482 29.6117 6.59648 28.982 6.51524 28.3481C6.50252 28.2489 6.47041 28.1531 6.42074 28.0663C6.37106 27.9795 6.3048 27.9034 6.22574 27.8422C6.14667 27.7811 6.05636 27.7361 5.95994 27.7099C5.86352 27.6837 5.7629 27.6768 5.66381 27.6896C5.56473 27.7023 5.46911 27.7345 5.38244 27.7842C5.29576 27.834 5.21972 27.9003 5.15865 27.9795C5.09759 28.0587 5.05269 28.1491 5.02654 28.2457C5.00038 28.3422 4.99347 28.443 5.00621 28.5422C5.17892 29.8889 5.60661 31.0697 6.22974 31.9431C4.88501 33.7934 4.96391 36.4478 5.70286 38.4046C6.37497 40.1845 7.51626 41.4187 8.84872 41.8544C8.57955 43.8647 9.10521 45.9832 10.3142 47.6558C11.3629 49.1066 12.7986 50.0551 14.3052 50.307C15.8407 52.9333 18.491 54.0001 21.0044 54C21.7279 54 22.4405 53.9115 23.1114 53.7464C24.6545 53.3666 26.0478 52.5729 27.0348 51.5118C27.4023 51.1167 27.7121 50.6895 27.9619 50.2357C28.2117 50.6895 28.5214 51.1167 28.8889 51.5118C29.8758 52.5731 31.2693 53.3666 32.8123 53.7464C33.502 53.9152 34.2094 54.0003 34.9193 54C37.4324 54 40.0828 52.9331 41.6184 50.3074C42.7242 50.1243 43.7841 49.572 44.7057 48.6942C44.8518 48.5549 44.9368 48.3633 44.9419 48.1613C44.9469 47.9593 44.8717 47.7636 44.7327 47.6172C44.5936 47.4709 44.4022 47.3858 44.2005 47.3807C43.9988 47.3757 43.8034 47.451 43.6572 47.5902C42.8754 48.3349 41.9839 48.7671 41.0789 48.8401C40.9504 48.8505 40.8267 48.8934 40.7193 48.9647C40.6119 49.0361 40.5244 49.1336 40.465 49.2481C38.9351 52.1962 35.7018 52.8886 33.1756 52.2667C31.1237 51.7617 28.7316 50.1453 28.7227 47.2508V19.2574C29.6659 17.5437 31.6055 15.9672 34.3386 16.5172C34.7506 16.6003 35.1515 16.3331 35.2343 15.9206C35.3172 15.5082 35.0505 15.1065 34.6385 15.0237C32.3937 14.5713 30.2764 15.2192 28.7227 16.7447V5.94693C29.9608 4.35839 31.7522 3.45743 33.5606 3.52741C35.163 3.58947 36.6452 4.40095 37.8248 5.83897C36.6908 6.12334 35.5232 6.86871 34.5207 8.76853C34.4278 8.94702 34.4092 9.15506 34.469 9.34721C34.5288 9.53937 34.6621 9.70001 34.8398 9.79404C35.0175 9.88808 35.2252 9.90786 35.4174 9.84907C35.6096 9.79028 35.7708 9.65769 35.8657 9.48028C36.9508 7.42405 38.0574 7.22529 39.19 7.19767C41.102 7.19828 42.0179 8.1682 42.4499 8.98263C43.1256 10.2567 43.0597 12.0031 42.2934 13.1352C42.2172 13.2479 42.1725 13.3791 42.164 13.5149C42.1555 13.6508 42.1835 13.7865 42.2451 13.9079C42.3068 14.0292 42.3997 14.1318 42.5144 14.205C42.629 14.2782 42.7612 14.3193 42.8971 14.324C44.5299 14.3798 45.9327 15.2296 46.7458 16.6555C47.6411 18.2255 47.6457 20.1366 46.7579 21.7677C46.7043 21.8663 46.6731 21.9755 46.6666 22.0876C46.66 22.1997 46.6783 22.3119 46.7201 22.416C46.7619 22.5202 46.8261 22.6139 46.9083 22.6903C46.9904 22.7667 47.0884 22.824 47.1953 22.8581C48.528 23.2828 49.0643 24.6928 49.2654 25.4954C49.6626 27.0808 49.4751 28.9874 48.8686 30.3281C48.6736 30.7592 48.1293 31.7598 47.318 32.3523C46.3253 33.1918 44.9255 33.6117 43.2026 33.5757C43.1027 33.5735 43.0033 33.591 42.9102 33.6273C42.817 33.6636 42.7319 33.7179 42.6598 33.7872C42.5877 33.8565 42.5299 33.9394 42.4899 34.0311C42.4498 34.1228 42.4282 34.2215 42.4264 34.3216C42.4243 34.4216 42.4419 34.5211 42.4782 34.6143C42.5145 34.7075 42.5688 34.7926 42.6379 34.8648C42.7071 34.937 42.7898 34.9948 42.8812 35.035C42.9727 35.0752 43.0712 35.097 43.1711 35.0991C43.2463 35.1006 43.3209 35.1014 43.3952 35.1014C45.5906 35.1014 47.4218 34.4215 48.6745 33.1632C49.4616 34.5352 49.3419 36.4254 48.7978 37.8665C48.2141 39.4124 47.1949 40.4209 46.1378 40.4987C46.0278 40.5068 45.9208 40.5388 45.8243 40.5924C45.7278 40.6461 45.6441 40.7201 45.5791 40.8094C45.514 40.8987 45.4691 41.001 45.4475 41.1094C45.426 41.2178 45.4282 41.3296 45.4541 41.437C45.7235 42.5557 45.6772 43.746 45.3203 44.8794C45.2902 44.9748 45.2792 45.0752 45.2879 45.1749C45.2966 45.2745 45.3248 45.3715 45.371 45.4602C45.4171 45.549 45.4802 45.6277 45.5567 45.6921C45.6332 45.7564 45.7216 45.805 45.8169 45.8351C45.9122 45.8652 46.0124 45.8762 46.1119 45.8675C46.2115 45.8588 46.3083 45.8305 46.3969 45.7843C46.4855 45.7381 46.5642 45.6749 46.6284 45.5983C46.6926 45.5217 46.7412 45.4332 46.7712 45.3378C47.1305 44.1973 47.2339 43.0071 47.0782 41.8537C48.4092 41.4179 49.5492 40.1843 50.2209 38.4053C50.9601 36.4479 51.0388 33.7924 49.6934 31.9418C50.88 30.2691 51.3327 27.4861 50.7411 25.1249Z" fill="black"/>
</svg>
