<svg width="46" height="52" viewBox="0 0 46 52" fill="none" xmlns="http://www.w3.org/2000/svg">
<path d="M9.0321 37.4729C9.01671 37.5718 9.02091 37.6727 9.04447 37.7699C9.06803 37.8671 9.11048 37.9587 9.1694 38.0395C9.22831 38.1203 9.30255 38.1887 9.38785 38.2407C9.47316 38.2928 9.56787 38.3275 9.66658 38.3429C14.9551 39.1683 15.6614 41.9085 15.686 44.2036C15.6881 44.4043 15.7691 44.5959 15.9115 44.737C16.0539 44.8782 16.2462 44.9573 16.4465 44.9573H16.4548C16.5547 44.9563 16.6534 44.9355 16.7453 44.8963C16.8372 44.857 16.9205 44.8 16.9903 44.7285C17.0602 44.657 17.1154 44.5724 17.1526 44.4796C17.1898 44.3868 17.2085 44.2875 17.2074 44.1875C17.1628 40.0021 14.7727 37.598 9.90096 36.8376C9.48656 36.7725 9.0969 37.0571 9.0321 37.4729ZM19.4458 28.5717C19.4458 28.3696 19.3657 28.1759 19.223 28.033C19.0803 27.8901 18.8868 27.8099 18.6851 27.8099C18.4833 27.8099 18.2898 27.8901 18.1471 28.033C18.0045 28.1759 17.9243 28.3696 17.9243 28.5717C17.9243 29.8929 17.309 30.7799 16.7928 31.2912C16.0795 31.9979 15.0697 32.4475 14.2222 32.4394C13.8028 32.4323 13.4579 32.7722 13.4533 33.193C13.4512 33.395 13.5292 33.5896 13.6703 33.734C13.8115 33.8784 14.0041 33.9608 14.2059 33.9629L14.2467 33.9631C15.4892 33.9631 16.871 33.3568 17.8628 32.3744C18.585 31.6589 19.4458 30.4185 19.4458 28.5717ZM37.2297 27.0331C37.4301 27.03 37.6211 26.9478 37.7614 26.8044C37.9016 26.661 37.9797 26.468 37.9786 26.2673C37.9775 26.0666 37.8974 25.8745 37.7557 25.7326C37.6139 25.5907 37.422 25.5106 37.2216 25.5096L37.1924 25.5097C36.5088 25.5097 35.6985 25.1434 35.1219 24.5722C34.7638 24.2175 34.3485 23.6404 34.2315 22.813C36.2968 21.7028 37.6176 19.5839 37.6053 17.2631C37.6042 17.0618 37.5236 16.8691 37.381 16.7271C37.2385 16.5852 37.0456 16.5055 36.8446 16.5055H36.8404C36.7405 16.506 36.6417 16.5262 36.5496 16.565C36.4575 16.6038 36.374 16.6604 36.3037 16.7315C36.2334 16.8026 36.1778 16.8869 36.1401 16.9795C36.1024 17.0721 36.0832 17.1713 36.0837 17.2714C36.0962 19.6007 34.4209 21.2258 32.7549 21.8032C30.9741 22.4203 29.2665 21.9589 28.1871 20.5688C28.1257 20.4898 28.0495 20.4237 27.9627 20.3743C27.8758 20.3248 27.7801 20.2929 27.681 20.2805C27.5819 20.2681 27.4813 20.2754 27.385 20.3019C27.2886 20.3284 27.1985 20.3736 27.1196 20.435C27.0407 20.4964 26.9747 20.5728 26.9253 20.6597C26.876 20.7467 26.8442 20.8425 26.8317 20.9418C26.8193 21.0411 26.8266 21.1418 26.8531 21.2383C26.8795 21.3347 26.9247 21.425 26.986 21.504C28.0428 22.8647 29.5737 23.5928 31.2349 23.5928C31.7438 23.5928 32.265 23.5236 32.7884 23.3843C33.0191 24.4312 33.5703 25.1783 34.052 25.6553C34.9123 26.5075 36.1127 27.0333 37.1936 27.0333L37.2297 27.0331ZM29.4688 44.9572H29.4771C29.6774 44.9572 29.8697 44.878 30.012 44.7369C30.1544 44.5959 30.2355 44.4042 30.2377 44.2036C30.2622 41.9085 30.9686 39.1683 36.2572 38.3429C36.3559 38.3275 36.4506 38.2928 36.5359 38.2407C36.6212 38.1887 36.6954 38.1203 36.7543 38.0395C36.8132 37.9587 36.8557 37.8671 36.8792 37.7699C36.9028 37.6727 36.907 37.5718 36.8916 37.4729C36.8762 37.374 36.8416 37.2792 36.7896 37.1937C36.7377 37.1083 36.6694 37.0339 36.5887 36.9749C36.508 36.9159 36.4165 36.8734 36.3194 36.8498C36.2223 36.8262 36.1215 36.8221 36.0228 36.8375C31.1512 37.5978 28.7611 40.002 28.7163 44.1874C28.7152 44.2874 28.7338 44.3867 28.7711 44.4795C28.8083 44.5723 28.8634 44.6569 28.9333 44.7284C29.0032 44.7999 29.0864 44.8569 29.1783 44.8962C29.2702 44.9354 29.3689 44.9562 29.4688 44.9572ZM31.7177 33.9628C31.9181 33.9597 32.1092 33.8775 32.2494 33.7341C32.3896 33.5908 32.4677 33.3978 32.4666 33.1971C32.4656 32.9964 32.3855 32.8042 32.2437 32.6623C32.102 32.5204 31.9101 32.4403 31.7097 32.4393L31.6759 32.4395C30.833 32.4395 29.8369 31.9907 29.1307 31.2911C28.6145 30.7798 27.9992 29.8928 27.9992 28.5716C27.9992 28.3695 27.9191 28.1758 27.7764 28.0329C27.6337 27.89 27.4402 27.8098 27.2385 27.8098C27.0367 27.8098 26.8432 27.89 26.7005 28.0329C26.5579 28.1758 26.4777 28.3695 26.4777 28.5716C26.4777 30.4184 27.3385 31.6589 28.0607 32.3743C29.0525 33.3568 30.4341 33.963 31.6767 33.963C31.6904 33.9631 31.7041 33.963 31.7177 33.9628ZM8.71059 25.5096C8.29132 25.5045 7.94629 25.8424 7.94162 26.2631C7.94053 26.3631 7.95912 26.4624 7.99634 26.5552C8.03356 26.6481 8.08868 26.7327 8.15856 26.8042C8.22843 26.8757 8.31168 26.9327 8.40357 26.972C8.49545 27.0113 8.59416 27.032 8.69406 27.0331L8.73017 27.0333C9.81111 27.0333 11.0115 26.5075 11.8719 25.6553C12.3534 25.1783 12.9047 24.4311 13.1355 23.384C13.659 23.5234 14.1802 23.5927 14.6893 23.5927C16.3502 23.5927 17.8812 22.8645 18.9378 21.504C18.9991 21.425 19.0443 21.3347 19.0708 21.2383C19.0973 21.1418 19.1045 21.0411 19.0921 20.9418C19.0797 20.8425 19.0479 20.7467 18.9985 20.6597C18.9491 20.5728 18.8831 20.4964 18.8043 20.435C18.7254 20.3736 18.6352 20.3284 18.5389 20.3019C18.4426 20.2754 18.342 20.2681 18.2429 20.2805C18.1437 20.2929 18.048 20.3248 17.9612 20.3743C17.8744 20.4237 17.7981 20.4898 17.7368 20.5688C16.6577 21.9583 14.951 22.42 13.1716 21.8038C11.5052 21.2269 9.82885 19.6015 9.84001 17.271C9.84095 17.0689 9.76172 16.8748 9.61974 16.7313C9.47776 16.5877 9.28465 16.5066 9.08291 16.5056H9.07915C8.87805 16.5056 8.68514 16.5854 8.5426 16.7275C8.40006 16.8696 8.31949 17.0624 8.3185 17.2637C8.30745 19.5842 9.62824 21.7023 11.6924 22.8125C11.5754 23.6402 11.1601 24.2175 10.8019 24.5723C10.2194 25.1491 9.40269 25.5149 8.71059 25.5096Z" fill="black"/>
<path d="M45.7411 23.1249C45.3489 21.5597 44.5469 20.392 43.4441 19.7545C44.2182 17.8332 44.0915 15.6971 43.0669 13.9001C42.1805 12.3455 40.7656 11.3062 39.0868 10.9419C39.6318 9.46684 39.5434 7.68239 38.7935 6.26824C37.9661 4.70814 36.4884 3.802 34.6037 3.68683C33.0789 1.39914 30.9672 0.0959926 28.6193 0.00509435C26.5317 -0.0761555 24.475 0.840241 22.962 2.48992C21.4504 0.840038 19.396 -0.0763586 17.306 0.00499279C14.9577 0.095891 12.8462 1.39904 11.3227 3.68673C9.43729 3.8021 7.95878 4.70875 7.13099 6.26966C6.38119 7.68351 6.29275 9.46745 6.83697 10.9418C5.15796 11.306 3.74324 12.3453 2.85683 13.9C1.83197 15.6973 1.7056 17.8337 2.47985 19.7553C1.49222 20.3292 0.736432 21.3372 0.31148 22.6702C0.251342 22.8624 0.269603 23.0705 0.362271 23.2492C0.454939 23.4279 0.614478 23.5626 0.806015 23.6238C0.997553 23.6851 1.20551 23.6679 1.38444 23.576C1.56336 23.4842 1.69871 23.3251 1.76088 23.1337C2.02802 22.2959 2.58604 21.221 3.72772 20.8586C3.83466 20.8246 3.93277 20.7673 4.01502 20.6909C4.09727 20.6145 4.16163 20.5209 4.20349 20.4166C4.24536 20.3124 4.26368 20.2002 4.25716 20.088C4.25063 19.9759 4.21942 19.8666 4.16576 19.7679C3.27813 18.1368 3.28269 16.2257 4.17803 14.6557C4.99102 13.2299 6.39386 12.3802 8.02663 12.3243C8.16255 12.3197 8.29475 12.2786 8.40945 12.2055C8.52416 12.1323 8.61718 12.0297 8.67883 11.9083C8.74049 11.7869 8.76851 11.6512 8.75999 11.5153C8.75147 11.3794 8.70671 11.2482 8.63039 11.1355C7.86466 10.0042 7.79914 8.25845 8.47481 6.98445C8.90706 6.16931 9.8235 5.19858 11.7367 5.19797C12.8678 5.2256 13.973 5.42425 15.0581 7.48059C15.1048 7.56906 15.1684 7.64745 15.2453 7.7113C15.3222 7.77515 15.4109 7.8232 15.5064 7.8527C15.6018 7.8822 15.7022 7.89258 15.8016 7.88324C15.9011 7.8739 15.9978 7.84503 16.0861 7.79827C16.2645 7.70388 16.3981 7.5424 16.4576 7.34935C16.5171 7.15629 16.4976 6.94748 16.4033 6.76884C15.4009 4.86922 14.2343 4.12385 13.1013 3.83937C14.2801 2.40125 15.7621 1.58967 17.3648 1.52772C19.1735 1.45784 20.9644 2.3585 22.2012 3.94703V14.7449C20.6475 13.2196 18.5302 12.5717 16.2853 13.0239C15.8734 13.1067 15.6067 13.5084 15.6895 13.9209C15.7724 14.3333 16.1733 14.6009 16.5853 14.5174C19.3179 13.9674 21.258 15.5439 22.2012 17.2577V45.2511C22.1923 48.1456 19.8002 49.762 17.7483 50.267C15.2223 50.8887 11.9889 50.1966 10.4589 47.2484C10.3995 47.1339 10.3119 47.0363 10.2045 46.9649C10.0971 46.8936 9.97338 46.8507 9.84489 46.8403C8.63272 46.7427 7.43058 45.9855 6.54681 44.7627C5.43869 43.2297 5.03706 41.2392 5.47246 39.4383C5.49843 39.3308 5.50072 39.2189 5.47919 39.1105C5.45765 39.002 5.4128 38.8996 5.34775 38.8102C5.28269 38.7209 5.199 38.6468 5.10248 38.5931C5.00595 38.5394 4.89891 38.5073 4.78878 38.4992C3.73036 38.4214 2.71007 37.4123 2.12599 35.8658C1.58197 34.4252 1.4623 32.5355 2.24922 31.1637C3.50176 32.422 5.33291 33.1018 7.52845 33.1018C7.60269 33.1018 7.67754 33.101 7.75259 33.0995C7.95431 33.0953 8.1461 33.011 8.28577 32.8652C8.42545 32.7194 8.50158 32.524 8.49742 32.322C8.4888 31.9014 8.14144 31.5685 7.72115 31.5761C5.9396 31.6136 4.50318 31.1631 3.50541 30.2652C3.25744 30.042 2.23654 29.0322 1.9979 28.201C1.7482 27.6117 1.59648 26.982 1.51524 26.3481C1.50252 26.2489 1.47041 26.1531 1.42074 26.0663C1.37106 25.9795 1.3048 25.9034 1.22574 25.8422C1.14667 25.7811 1.05636 25.7361 0.95994 25.7099C0.863524 25.6837 0.7629 25.6768 0.663815 25.6896C0.564727 25.7023 0.469115 25.7345 0.382439 25.7842C0.295763 25.834 0.21972 25.9003 0.158654 25.9795C0.0975878 26.0587 0.0526943 26.1491 0.0265369 26.2457C0.000379505 26.3422 -0.00652922 26.443 0.00620515 26.5422C0.178924 27.8889 0.606614 29.0697 1.22974 29.9431C-0.114992 31.7934 -0.0360872 34.4478 0.702862 36.4046C1.37497 38.1845 2.51626 39.4187 3.84872 39.8544C3.57955 41.8647 4.10521 43.9832 5.31424 45.6558C6.36293 47.1066 7.79864 48.0551 9.30524 48.307C10.8407 50.9333 13.491 52.0001 16.0044 52C16.7279 52 17.4405 51.9115 18.1114 51.7464C19.6545 51.3666 21.0478 50.5729 22.0348 49.5118C22.4023 49.1167 22.7121 48.6895 22.9619 48.2357C23.2117 48.6895 23.5214 49.1167 23.8889 49.5118C24.8758 50.5731 26.2693 51.3666 27.8123 51.7464C28.502 51.9152 29.2094 52.0003 29.9193 52C32.4324 52 35.0828 50.9331 36.6184 48.3074C37.7242 48.1243 38.7841 47.572 39.7057 46.6942C39.8518 46.5549 39.9368 46.3633 39.9419 46.1613C39.9469 45.9593 39.8717 45.7636 39.7327 45.6172C39.5936 45.4709 39.4022 45.3858 39.2005 45.3807C38.9988 45.3757 38.8034 45.451 38.6572 45.5902C37.8754 46.3349 36.9839 46.7671 36.0789 46.8401C35.9504 46.8505 35.8267 46.8934 35.7193 46.9647C35.6119 47.0361 35.5244 47.1336 35.465 47.2481C33.9351 50.1962 30.7018 50.8886 28.1756 50.2667C26.1237 49.7617 23.7316 48.1453 23.7227 45.2508V17.2574C24.6659 15.5437 26.6055 13.9672 29.3386 14.5172C29.7506 14.6003 30.1515 14.3331 30.2343 13.9206C30.3172 13.5082 30.0505 13.1065 29.6385 13.0237C27.3937 12.5713 25.2764 13.2192 23.7227 14.7447V3.94693C24.9608 2.35839 26.7522 1.45743 28.5606 1.52741C30.163 1.58947 31.6452 2.40095 32.8248 3.83897C31.6908 4.12334 30.5232 4.86871 29.5207 6.76853C29.4278 6.94702 29.4092 7.15506 29.469 7.34721C29.5288 7.53937 29.6621 7.70001 29.8398 7.79404C30.0175 7.88808 30.2252 7.90786 30.4174 7.84907C30.6096 7.79028 30.7708 7.65769 30.8657 7.48028C31.9508 5.42405 33.0574 5.22529 34.19 5.19767C36.102 5.19828 37.0179 6.1682 37.4499 6.98263C38.1256 8.25672 38.0597 10.0031 37.2934 11.1352C37.2172 11.2479 37.1725 11.3791 37.164 11.5149C37.1555 11.6508 37.1835 11.7865 37.2451 11.9079C37.3068 12.0292 37.3997 12.1318 37.5144 12.205C37.629 12.2782 37.7612 12.3193 37.8971 12.324C39.5299 12.3798 40.9327 13.2296 41.7458 14.6555C42.6411 16.2255 42.6457 18.1366 41.7579 19.7677C41.7043 19.8663 41.6731 19.9755 41.6666 20.0876C41.66 20.1997 41.6783 20.3119 41.7201 20.416C41.7619 20.5202 41.8261 20.6139 41.9083 20.6903C41.9904 20.7667 42.0884 20.824 42.1953 20.8581C43.528 21.2828 44.0643 22.6928 44.2654 23.4954C44.6626 25.0808 44.4751 26.9874 43.8686 28.3281C43.6736 28.7592 43.1293 29.7598 42.318 30.3523C41.3253 31.1918 39.9255 31.6117 38.2026 31.5757C38.1027 31.5735 38.0033 31.591 37.9102 31.6273C37.817 31.6636 37.7319 31.7179 37.6598 31.7872C37.5877 31.8565 37.5299 31.9394 37.4899 32.0311C37.4498 32.1228 37.4282 32.2215 37.4264 32.3216C37.4243 32.4216 37.4419 32.5211 37.4782 32.6143C37.5145 32.7075 37.5688 32.7926 37.6379 32.8648C37.7071 32.937 37.7898 32.9948 37.8812 33.035C37.9727 33.0752 38.0712 33.097 38.1711 33.0991C38.2463 33.1006 38.3209 33.1014 38.3952 33.1014C40.5906 33.1014 42.4218 32.4215 43.6745 31.1632C44.4616 32.5352 44.3419 34.4254 43.7978 35.8665C43.2141 37.4124 42.1949 38.4209 41.1378 38.4987C41.0278 38.5068 40.9208 38.5388 40.8243 38.5924C40.7278 38.6461 40.6441 38.7201 40.5791 38.8094C40.514 38.8987 40.4691 39.001 40.4475 39.1094C40.426 39.2178 40.4282 39.3296 40.4541 39.437C40.7235 40.5557 40.6772 41.746 40.3203 42.8794C40.2902 42.9748 40.2792 43.0752 40.2879 43.1749C40.2966 43.2745 40.3248 43.3715 40.371 43.4602C40.4171 43.549 40.4802 43.6277 40.5567 43.6921C40.6332 43.7564 40.7216 43.805 40.8169 43.8351C40.9122 43.8652 41.0124 43.8762 41.1119 43.8675C41.2115 43.8588 41.3083 43.8305 41.3969 43.7843C41.4855 43.7381 41.5642 43.6749 41.6284 43.5983C41.6926 43.5217 41.7412 43.4332 41.7712 43.3378C42.1305 42.1973 42.2339 41.0071 42.0782 39.8537C43.4092 39.4179 44.5492 38.1843 45.2209 36.4053C45.9601 34.4479 46.0388 31.7924 44.6934 29.9418C45.88 28.2691 46.3327 25.4861 45.7411 23.1249Z" fill="black"/>
</svg>
